<?xml version="1.0" encoding="UTF-8" standalone="no"?>
<!DOCTYPE svg PUBLIC "-//W3C//DTD SVG 1.1//EN" "http://www.w3.org/Graphics/SVG/1.1/DTD/svg11.dtd">
<svg version="1.1" xmlns="http://www.w3.org/2000/svg" xmlns:xlink="http://www.w3.org/1999/xlink" preserveAspectRatio="xMidYMid meet" viewBox="0 0 150 150" width="150" height="150"><defs><path d="M74.46 28.06L75 46.4L37.5 72.84L0 46.4L0.54 28.06L37.5 0L37.5 0L74.46 28.06Z" id="d4Yad7epAt"></path><path d="M75 46.4L37.5 72.84L0 46.4L37.5 44.78L75 46.4Z" id="ge4xxnybt"></path><path d="M61.65 45.86L37.63 57.6L37.63 57.73L37.5 57.67L37.37 57.73L37.37 57.6L13.35 45.86L37.37 0.51L37.37 0L37.5 0.26L37.63 0L37.63 0.51L61.65 45.86Z" id="gJP6VGzC"></path><path d="M149.46 105.22L150 123.56L112.5 150L75 123.56L75.54 105.22L112.5 77.16L112.5 77.16L149.46 105.22Z" id="a3Ltgcsyww"></path><path d="M150 123.56L112.5 150L75 123.56L112.5 121.94L150 123.56Z" id="a1fCLiJ0Uu"></path><path d="M136.65 123.02L112.63 134.76L112.63 134.89L112.5 134.83L112.37 134.89L112.37 134.76L88.35 123.02L112.37 77.67L112.37 77.16L112.5 77.41L112.63 77.16L112.63 77.67L136.65 123.02Z" id="a2YrFlmMIh"></path></defs><g><g><g><use xlink:href="#d4Yad7epAt" opacity="1" fill="#159235" fill-opacity="1"></use></g><g><use xlink:href="#ge4xxnybt" opacity="1" fill="#053812" fill-opacity="1"></use></g><g><use xlink:href="#gJP6VGzC" opacity="1" fill="#166229" fill-opacity="1"></use></g><g><use xlink:href="#a3Ltgcsyww" opacity="1" fill="#159235" fill-opacity="1"></use></g><g><use xlink:href="#a1fCLiJ0Uu" opacity="1" fill="#053812" fill-opacity="1"></use></g><g><use xlink:href="#a2YrFlmMIh" opacity="1" fill="#166229" fill-opacity="1"></use></g></g></g></svg>