<?xml version="1.0" encoding="UTF-8" standalone="no"?>
<!DOCTYPE svg PUBLIC "-//W3C//DTD SVG 1.1//EN" "http://www.w3.org/Graphics/SVG/1.1/DTD/svg11.dtd">
<svg version="1.1" xmlns="http://www.w3.org/2000/svg" xmlns:xlink="http://www.w3.org/1999/xlink" preserveAspectRatio="xMidYMid meet" viewBox="0 0 150 150" width="150" height="150"><defs><path d="M56.27 100.37L50 67.77L11.67 57.1L11.67 95.43L35.33 129.43L56.27 100.37Z" id="cF1CxVtK9"></path><path d="M91.93 100.57L100 67.77L138.33 57.1L138.33 95.43L114.67 129.43L91.93 100.57Z" id="amhBkPjfg"></path><path d="M55.67 99.77L90.67 94.1L114.67 129.43L76 140.77L35.33 129.43L55.67 99.77Z" id="edhV6rpdR"></path><path d="M112.27 22.17L138.33 57.1L78.93 82.5L11.67 57.1L35.33 22.63L72.73 9.23L112.27 22.17Z" id="d1vjTPlX4r"></path><path d="M33.97 64.58L75.96 35.93L117.97 64.58L101.92 110.93L50.01 110.93L33.97 64.58Z" id="a1jd5VFusO"></path></defs><g><g><g><use xlink:href="#cF1CxVtK9" opacity="1" fill="#0c6824" fill-opacity="1"></use></g><g><use xlink:href="#amhBkPjfg" opacity="1" fill="#0c6824" fill-opacity="1"></use></g><g><use xlink:href="#edhV6rpdR" opacity="1" fill="#083915" fill-opacity="1"></use></g><g><use xlink:href="#d1vjTPlX4r" opacity="1" fill="#137d2f" fill-opacity="1"></use></g><g><use xlink:href="#a1jd5VFusO" opacity="1" fill="#278c41" fill-opacity="1"></use></g></g></g></svg>